<svg width="250" height="125" viewBox="0 0 250 125" fill="none" xmlns="http://www.w3.org/2000/svg">
<path fill-rule="evenodd" clip-rule="evenodd" d="M125.157 119.111H165.125L125.157 67.7085V119.111Z" fill="#E1EAFF"/>
<path d="M46.9307 114.059V101.93H65.6007" stroke="#3370FF" stroke-linecap="round" stroke-linejoin="round"/>
<path d="M76.7677 101.93H125.286V119.025H46.9307" stroke="#3370FF" stroke-linecap="round" stroke-linejoin="round"/>
<path fill-rule="evenodd" clip-rule="evenodd" d="M118.196 110.477C118.196 112.494 116.561 114.129 114.545 114.129C112.528 114.129 110.893 112.494 110.893 110.477C110.893 108.46 112.528 106.826 114.545 106.826C116.561 106.826 118.196 108.46 118.196 110.477Z" fill="#BACEFD"/>
<path d="M46.9307 101.93V83.5889H125.285V101.93" stroke="#3370FF" stroke-width="1.036" stroke-linecap="round" stroke-linejoin="round"/>
<path fill-rule="evenodd" clip-rule="evenodd" d="M118.196 92.1359C118.196 94.1539 116.561 95.7879 114.545 95.7879C112.528 95.7879 110.893 94.1539 110.893 92.1359C110.893 90.1189 112.528 88.4849 114.545 88.4849C116.561 88.4849 118.196 90.1189 118.196 92.1359Z" fill="#BACEFD"/>
<path fill-rule="evenodd" clip-rule="evenodd" d="M125.286 83.589H47.3356C47.1126 83.589 46.9316 83.407 46.9316 83.185V69.795C46.9316 67.283 48.9676 65.248 51.4786 65.248H120.739C123.25 65.248 125.286 67.283 125.286 69.795V83.589Z" stroke="#3370FF" stroke-width="1.036" stroke-linecap="round" stroke-linejoin="round"/>
<path fill-rule="evenodd" clip-rule="evenodd" d="M118.196 74.1632C118.196 76.1802 116.561 77.8152 114.545 77.8152C112.528 77.8152 110.893 76.1802 110.893 74.1632C110.893 72.1462 112.528 70.5122 114.545 70.5122C116.561 70.5122 118.196 72.1462 118.196 74.1632Z" fill="#F54A45"/>
<path fill-rule="evenodd" clip-rule="evenodd" d="M98.9475 77.7022H58.7535C56.8305 77.7022 55.2725 76.1432 55.2725 74.2212V74.1062C55.2725 72.1832 56.8305 70.6252 58.7535 70.6252H98.9475C100.87 70.6252 102.428 72.1832 102.428 74.1062V74.2212C102.428 76.1432 100.87 77.7022 98.9475 77.7022Z" fill="#BACEFD"/>
<path fill-rule="evenodd" clip-rule="evenodd" d="M98.9475 95.6749H58.7535C56.8305 95.6749 55.2725 94.1159 55.2725 92.1939V92.0789C55.2725 90.1559 56.8305 88.5979 58.7535 88.5979H98.9475C100.87 88.5979 102.428 90.1559 102.428 92.0789V92.1939C102.428 94.1159 100.87 95.6749 98.9475 95.6749Z" fill="#BACEFD"/>
<path fill-rule="evenodd" clip-rule="evenodd" d="M98.9475 114.059H58.7535C56.8305 114.059 55.2725 112.5 55.2725 110.578V110.463C55.2725 108.54 56.8305 106.982 58.7535 106.982H98.9475C100.87 106.982 102.428 108.54 102.428 110.463V110.578C102.428 112.5 100.87 114.059 98.9475 114.059Z" fill="#BACEFD"/>
<path fill-rule="evenodd" clip-rule="evenodd" d="M130.744 35.6075C130.744 35.6075 129.976 40.1265 133.39 42.9535C139.369 47.9025 151.747 78.8475 161.044 84.8595C170.342 90.8705 178.704 79.5965 178.704 79.5965L171.057 62.9785L165.939 66.2355L151.27 41.7605C151.27 41.7605 156.592 34.8085 154.608 28.9775C150.555 17.0655 148.171 19.3065 147.694 25.9345C147.694 25.9345 146.089 19.5585 140.368 23.2715" fill="#FEEAD2"/>
<path d="M130.744 35.6075C130.744 35.6075 129.976 40.1265 133.39 42.9535C139.369 47.9025 151.747 78.8475 161.044 84.8595C170.342 90.8705 178.704 79.5965 178.704 79.5965L171.057 62.9785L165.939 66.2355L151.27 41.7605C151.27 41.7605 156.592 34.8085 154.608 28.9775C150.555 17.0655 148.171 19.3065 147.694 25.9345C147.694 25.9345 146.089 19.5585 140.368 23.2715" stroke="#3370FF" stroke-linecap="round" stroke-linejoin="round"/>
<path fill-rule="evenodd" clip-rule="evenodd" d="M192.358 46.6067L169.234 60.5227L177.601 78.7077L195.619 52.2947L192.358 46.6067Z" fill="#3370FF"/>
<path fill-rule="evenodd" clip-rule="evenodd" d="M192.358 46.6067L169.234 60.5227L177.601 78.7077L195.619 52.2947L192.358 46.6067Z" stroke="white" stroke-linecap="round" stroke-linejoin="round"/>
<path fill-rule="evenodd" clip-rule="evenodd" d="M189.82 40.6583C184.918 42.3153 182.929 35.2353 182.929 35.2353L180.123 36.9073L178.649 23.8903C178.649 23.8903 177.587 18.8583 184.135 16.9433C190.603 15.0523 191.547 21.2823 191.547 21.2823L192.551 25.1343C192.551 25.1343 196.199 20.2973 197.904 23.7563C199.474 26.9403 196.025 29.9873 196.025 29.9873C196.025 29.9873 197.602 40.6973 204.762 44.5693C204.762 44.5693 188.272 49.4193 191.241 47.6313C193.463 46.2943 191.872 39.6793 191.872 39.6793L189.82 40.6583Z" fill="#FFEACF"/>
<path fill-rule="evenodd" clip-rule="evenodd" d="M189.82 40.6583C184.918 42.3153 182.929 35.2353 182.929 35.2353L180.123 36.9073L178.649 23.8903C178.649 23.8903 177.587 18.8583 184.135 16.9433C190.603 15.0523 191.547 21.2823 191.547 21.2823L192.551 25.1343C192.551 25.1343 196.199 20.2973 197.904 23.7563C199.474 26.9403 196.025 29.9873 196.025 29.9873C196.025 29.9873 197.602 40.6973 204.762 44.5693C204.762 44.5693 188.272 49.4193 191.241 47.6313C193.463 46.2943 191.872 39.6793 191.872 39.6793L189.82 40.6583Z" stroke="#3370FF" stroke-linecap="round" stroke-linejoin="round"/>
<path d="M40.721 63.762L32.5 59.502" stroke="#3370FF" stroke-linecap="round" stroke-linejoin="round"/>
<path d="M46.9306 59.047L44.0576 50.377" stroke="#3370FF" stroke-linecap="round" stroke-linejoin="round"/>
<path d="M43.774 61.2453L39.752 58.0933" stroke="#3370FF" stroke-linecap="round" stroke-linejoin="round"/>
<path fill-rule="evenodd" clip-rule="evenodd" d="M206.274 119.111H165.749C165.749 119.111 187.327 32.2164 204.762 44.7124C213.664 51.0924 213.447 64.0874 209.995 90.3834" fill="#3370FF"/>
<mask id="mask0" mask-type="alpha" maskUnits="userSpaceOnUse" x="40" y="118" width="179" height="2">
<path fill-rule="evenodd" clip-rule="evenodd" d="M40.6367 118.612H218.942V119.611H40.6367V118.612Z" fill="white"/>
</mask>
<g mask="url(#mask0)">
<path d="M218.942 119.112H40.6367" stroke="#3370FF" stroke-linecap="round" stroke-linejoin="round"/>
</g>
<path fill-rule="evenodd" clip-rule="evenodd" d="M170.317 83.8537C170.317 83.8537 117.906 73.5537 117.629 76.4207C117.514 77.6063 119.844 80.1717 119.844 80.7711C119.844 81.6288 117.042 80.7711 117.042 82.5017C117.042 85.655 121.089 85.2742 121.089 86.6242C121.089 87.9743 118.195 86.6907 116.958 89.5067C115.456 92.925 169.235 106.279 179.07 100.844C186.334 96.8317 192.549 82.8327 192.549 82.8327C189.187 79.4557 177.602 71.2507 177.602 71.2507L170.317 83.8537Z" fill="#FEEAD2"/>
<path fill-rule="evenodd" clip-rule="evenodd" d="M170.317 83.8537C170.317 83.8537 117.906 73.5537 117.629 76.4207C117.042 82.5017 132.163 87.8367 132.283 84.6217C132.403 81.4047 117.147 79.3497 117.042 82.5017C116.937 85.6547 130.192 91.9807 130.597 89.9757C131.062 87.6707 118.372 84.5087 116.958 89.5067C115.983 92.9567 169.235 106.279 179.07 100.844C186.334 96.8317 192.549 82.8327 192.549 82.8327C189.187 79.4557 177.602 71.2507 177.602 71.2507L170.317 83.8537Z" stroke="#3370FF" stroke-linecap="round" stroke-linejoin="round"/>
<path fill-rule="evenodd" clip-rule="evenodd" d="M182.347 28.4834C182.329 29.0304 182.758 29.4874 183.305 29.5054C183.851 29.5234 184.309 29.0944 184.326 28.5474C184.345 28.0014 183.916 27.5444 183.369 27.5254C182.823 27.5074 182.365 27.9364 182.347 28.4834Z" fill="#1F2329"/>
<path fill-rule="evenodd" clip-rule="evenodd" d="M120.115 46.2297C119.92 45.2547 124.989 41.3557 124.989 41.3557L130.139 42.0547L149.801 22.3927V17.1027L154.683 12.2197L157.328 14.8657C157.328 14.8657 154.521 17.6717 157.056 20.2067C159.59 22.7407 161.617 19.1547 161.617 19.1547L165.126 22.6637L160.718 27.0717L154.87 27.4607L135.207 47.1237V51.8827L130.488 56.6027L127.523 53.6377C127.523 53.6377 131.237 50.1847 128.93 47.8767C126.623 45.5707 122.844 48.9587 122.844 48.9587L120.115 46.2297Z" fill="#FFC60A"/>
<path fill-rule="evenodd" clip-rule="evenodd" d="M178.649 23.8907C178.649 23.8907 182.056 22.8317 185.991 22.9607C189.925 23.0897 193.166 30.7077 192.966 28.8957C192.551 25.1337 195.409 22.9427 196.297 21.6837C196.297 21.6837 198.212 14.3577 192.797 11.4707C189.48 9.70268 178.139 14.8267 178.139 14.8267C178.139 14.8267 167.393 24.4857 178.649 23.8907Z" fill="#1F2329"/>
<path fill-rule="evenodd" clip-rule="evenodd" d="M178.649 23.8907C178.649 23.8907 182.056 22.8317 185.991 22.9607C189.925 23.0897 193.166 30.7077 192.966 28.8957C192.551 25.1337 195.409 22.9427 196.297 21.6837C196.297 21.6837 198.212 14.3577 192.797 11.4707C189.48 9.70268 178.139 14.8267 178.139 14.8267C178.139 14.8267 167.393 24.4857 178.649 23.8907Z" stroke="#1F2329" stroke-linecap="round" stroke-linejoin="round"/>
<path fill-rule="evenodd" clip-rule="evenodd" d="M199.375 22.5607C201.379 16.2857 197.917 9.57374 191.642 7.56874C185.366 5.56474 178.654 9.02774 176.65 15.3017L199.375 22.5607Z" fill="#FFC60A"/>
<path fill-rule="evenodd" clip-rule="evenodd" d="M135.745 30.5782C135.745 30.5782 132.675 27.1382 129.576 30.5782C126.477 34.0172 129.07 44.2682 132.661 42.6002C136.251 40.9322 134.106 35.0612 134.106 35.0612" fill="#FFEACF"/>
<path d="M135.745 30.5782C135.745 30.5782 132.675 27.1382 129.576 30.5782C126.477 34.0172 129.07 44.2682 132.661 42.6002C136.251 40.9322 134.106 35.0612 134.106 35.0612" stroke="#3370FF" stroke-linecap="round" stroke-linejoin="round"/>
<path fill-rule="evenodd" clip-rule="evenodd" d="M140.367 25.5479C140.367 25.5479 137.297 22.1079 134.198 25.5479C131.099 28.9879 133.692 39.2389 137.283 37.5699C140.873 35.9019 138.728 30.0309 138.728 30.0309" fill="#FFEACF"/>
<path d="M140.367 25.5479C140.367 25.5479 137.297 22.1079 134.198 25.5479C131.099 28.9879 133.692 39.2389 137.283 37.5699C140.873 35.9019 138.728 30.0309 138.728 30.0309" stroke="#3370FF" stroke-linecap="round" stroke-linejoin="round"/>
<path fill-rule="evenodd" clip-rule="evenodd" d="M145.514 22.8311C145.514 22.8311 142.444 19.3911 139.345 22.8311C136.246 26.2711 138.839 36.5221 142.43 34.8531C146.02 33.1851 143.875 27.3151 143.875 27.3151" fill="#FFEACF"/>
<path d="M145.514 22.8311C145.514 22.8311 142.444 19.3911 139.345 22.8311C136.246 26.2711 138.839 36.5221 142.43 34.8531C146.02 33.1851 143.875 27.3151 143.875 27.3151" stroke="#3370FF" stroke-linecap="round" stroke-linejoin="round"/>
<path fill-rule="evenodd" clip-rule="evenodd" d="M136.259 77.6965C136.259 77.6965 130.363 67.2235 134.749 67.7265C137.825 68.0795 145.526 79.4005 145.526 79.4005L136.259 77.6965Z" fill="#FFEACF"/>
<path fill-rule="evenodd" clip-rule="evenodd" d="M136.259 77.6965C136.259 77.6965 130.363 67.2235 134.749 67.7265C137.825 68.0795 145.526 79.4005 145.526 79.4005L136.259 77.6965Z" stroke="#3370FF" stroke-linecap="round" stroke-linejoin="round"/>
<path fill-rule="evenodd" clip-rule="evenodd" d="M177.602 71.251C177.602 71.251 192.119 37.529 203.611 44.712C215.103 51.896 197.441 86.624 197.441 86.624L177.602 71.251Z" fill="#3370FF"/>
<path fill-rule="evenodd" clip-rule="evenodd" d="M177.602 71.251C177.602 71.251 192.119 37.529 203.611 44.712C215.103 51.896 197.441 86.624 197.441 86.624L177.602 71.251Z" stroke="white" stroke-linecap="round" stroke-linejoin="round"/>
<path d="M81.0954 59.9299C81.0954 59.9299 91.2004 60.2359 91.6814 55.9049C92.1624 51.5739 78.5294 48.2669 78.8494 51.6049C79.1704 54.9429 98.8994 51.5159 98.8994 43.8459C98.8994 36.1759 69.0654 34.5409 69.0654 40.6519C69.0654 46.7619 108.042 41.3319 105.155 30.5739C102.267 19.8149 78.8494 23.1089 78.8494 23.1089" stroke="#3370FF" stroke-linecap="round" stroke-linejoin="round"/>
<path fill-rule="evenodd" clip-rule="evenodd" d="M170.06 13.3741L199.183 22.9371L200.077 20.2141L170.954 10.6511L170.06 13.3741Z" fill="#FFC60A"/>
</svg>
